# xmcd
#
# Track frame offsets: 
#        150
#        14337
#        23997
#        44012
#        56300
#        65902
#        77027
#        88595
#        103397
#        127445
#        151295
#        166997
#        182435
#        200060
#        220270
#        230222
#        246352
#        261110
#        279195
#        292452
#
# Disc length: 4261 seconds
#
# Revision: 2
# Processed by: cddbd v1.5.2PL0 Copyright (c) Steve Scherf et al.
# Submitted via: ExactAudioCopy v1.0b3
#
DISCID=3a10a314
DTITLE=Campbell, Glen - Wichita Lineman
DYEAR=2001
DGENRE=Country
TTITLE0=Rhinestone Cowboy
TTITLE1=Gentle On My Mind
TTITLE2=Medley - Wichita Lineman - Galveston - Country Boy
TTITLE3=By The Time I Get To Phoenix
TTITLE4=Dreams Of The Everyday Housewife
TTITLE5=Heartache Number Three
TTITLE6=It's Only Make Believe
TTITLE7=Crying
TTITLE8=Medley - Rocky Top - Orange Blossom Special
TTITLE9=Milkcow Blues
TTITLE10=Rollin' (In My Sweet Baby's Arms)
TTITLE11=I'm So Lonesome I Could Cry
TTITLE12=Southern Nights
TTITLE13=Amazing Grace
TTITLE14=Try A Little Kindness
TTITLE15=Please Come To Boston
TTITLE16=In Your Loving Arms Again
TTITLE17=It's Your World Boys And Girls
TTITLE18=Trials And Tribulations
TTITLE19=Mull Of Kintyre
EXTD=CEDAR GFS356
EXTT0=
EXTT1=
EXTT2=
EXTT3=
EXTT4=
EXTT5=
EXTT6=
EXTT7=
EXTT8=
EXTT9=
EXTT10=
EXTT11=
EXTT12=
EXTT13=
EXTT14=
EXTT15=
EXTT16=
EXTT17=
EXTT18=
EXTT19=
PLAYORDER=
